<svg xmlns="http://www.w3.org/2000/svg" width="880" height="240" viewBox="0 0 880 240" fill="none">
  <!-- Variante clara del logo para fondos oscuros (letrero retroiluminado) -->
  <g stroke="#fdf6e8" stroke-width="3" stroke-linecap="round" stroke-linejoin="round" fill="none">
    <path d="M86 78 a26 26 0 0 1 52 0" />
    <line x1="112" y1="44" x2="112" y2="52" />
    <circle cx="112" cy="40" r="3" fill="#fdf6e8" stroke="none" />
    <path d="M150 78 l28 -20 l28 20" />
    <line x1="70" y1="86" x2="250" y2="86" />
    <line x1="74" y1="96" x2="246" y2="96" />
    <line x1="86" y1="98" x2="86" y2="176" />
    <line x1="110" y1="98" x2="110" y2="176" />
    <line x1="134" y1="98" x2="134" y2="176" />
    <line x1="178" y1="98" x2="178" y2="176" />
    <line x1="202" y1="98" x2="202" y2="176" />
    <line x1="226" y1="98" x2="226" y2="176" />
    <line x1="74" y1="138" x2="246" y2="138" />
    <path d="M90 176 v-22 a8 8 0 0 1 16 0 v22" />
    <path d="M114 176 v-22 a8 8 0 0 1 16 0 v22" />
    <path d="M150 176 v-26 a16 16 0 0 1 32 0 v26" />
    <path d="M202 176 v-22 a8 8 0 0 1 16 0 v22" />
    <line x1="64" y1="182" x2="256" y2="182" />
    <line x1="58" y1="190" x2="262" y2="190" />
  </g>
  <line x1="300" y1="60" x2="300" y2="180" stroke="#cdb98e" stroke-width="2" />
  <text x="330" y="118" font-family="Arial, Helvetica, sans-serif" font-size="92" font-weight="700" letter-spacing="2" fill="#fdf6e8">PROENZA</text>
  <text x="332" y="172" font-family="Arial, Helvetica, sans-serif" font-size="46" font-weight="400" letter-spacing="12" fill="#d8c9a8">ABOGADOS</text>
</svg>
